$MeshFormat
4.1 0 8
$EndMeshFormat
$PhysicalNames
4
1 2 "inlet"
1 3 "outlet"
1 4 "noflux"
2 1 "dom"
$EndPhysicalNames
$Entities
4 4 1 0
1 0 0 0 0 
2 1 0 0 0 
3 1 1 0 0 
4 0 1 0 0 
1 -9.999999994736442e-08 -1e-07 -1e-07 1.0000001 1e-07 1e-07 1 4 2 1 -2 
2 0.9999999000000001 -9.999999994736442e-08 -1e-07 1.0000001 1.0000001 1e-07 1 3 2 2 -3 
3 -9.999999994736442e-08 0.9999999000000001 -1e-07 1.0000001 1.0000001 1e-07 1 4 2 3 -4 
4 -1e-07 -9.999999994736442e-08 -1e-07 1e-07 1.0000001 1e-07 1 2 2 4 -1 
1 -9.999999994736442e-08 -9.999999994736442e-08 -1e-07 1.0000001 1.0000001 1e-07 1 1 4 1 2 3 4 
$EndEntities
$Nodes
9 10 1 10
0 1 0 1
1
0 0 0
0 2 0 1
2
1 0 0
0 3 0 1
3
1 1 0
0 4 0 1
4
0 1 0
1 1 0 3
5
6
7
0.25 0 0
0.5 0 0
0.75 0 0
1 2 0 0
1 3 0 3
8
9
10
0.75 1 0
0.5 1 0
0.25 1 0
1 4 0 0
2 1 0 0
$EndNodes
$Elements
5 14 1 14
1 1 1 4
1 1 5 
2 5 6 
3 6 7 
4 7 2 
1 2 1 1
5 2 3 
1 3 1 4
6 3 8 
7 8 9 
8 9 10 
9 10 4 
1 4 1 1
10 4 1 
2 1 3 4
11 1 5 10 4 
12 5 6 9 10 
13 6 7 8 9 
14 7 2 3 8 
$EndElements
