$MeshFormat
4.1 0 8
$EndMeshFormat
$PhysicalNames
4
1 2 "inlet"
1 3 "outlet"
1 4 "noflux"
2 1 "dom"
$EndPhysicalNames
$Entities
4 4 1 0
1 0 0 0 0 
2 1 0 0 0 
3 1 1 0 0 
4 0 1 0 0 
1 -9.999999994736442e-08 -1e-07 -1e-07 1.0000001 1e-07 1e-07 1 2 2 1 -2 
2 0.9999999000000001 -9.999999994736442e-08 -1e-07 1.0000001 1.0000001 1e-07 1 3 2 2 -3 
3 -9.999999994736442e-08 0.9999999000000001 -1e-07 1.0000001 1.0000001 1e-07 1 4 2 3 -4 
4 -1e-07 -9.999999994736442e-08 -1e-07 1e-07 1.0000001 1e-07 1 2 2 4 -1 
1 -9.999999994736442e-08 -9.999999994736442e-08 -1e-07 1.0000001 1.0000001 1e-07 1 1 4 1 2 3 4 
$EndEntities
$Nodes
9 25 1 25
0 1 0 1
1
0 0 0
0 2 0 1
2
1 0 0
0 3 0 1
3
1 1 0
0 4 0 1
4
0 1 0
1 1 0 3
5
6
7
0.25 0 0
0.5 0 0
0.75 0 0
1 2 0 3
8
9
10
1 0.25 0
1 0.5 0
1 0.75 0
1 3 0 3
11
12
13
0.75 1 0
0.5 1 0
0.25 1 0
1 4 0 3
14
15
16
0 0.75 0
0 0.5 0
0 0.25 0
2 1 0 9
17
18
19
20
21
22
23
24
25
0.25 0.25 0
0.25 0.5 0
0.25 0.75 0
0.5 0.25 0
0.5 0.5 0
0.5 0.75 0
0.75 0.25 0
0.75 0.5 0
0.75 0.75 0
$EndNodes
$Elements
5 32 1 32
1 1 1 4
1 1 5 
2 5 6 
3 6 7 
4 7 2 
1 2 1 4
5 2 8 
6 8 9 
7 9 10 
8 10 3 
1 3 1 4
9 3 11 
10 11 12 
11 12 13 
12 13 4 
1 4 1 4
13 4 14 
14 14 15 
15 15 16 
16 16 1 
2 1 3 16
17 1 5 17 16 
18 16 17 18 15 
19 15 18 19 14 
20 14 19 13 4 
21 5 6 20 17 
22 17 20 21 18 
23 18 21 22 19 
24 19 22 12 13 
25 6 7 23 20 
26 20 23 24 21 
27 21 24 25 22 
28 22 25 11 12 
29 7 2 8 23 
30 23 8 9 24 
31 24 9 10 25 
32 25 10 3 11 
$EndElements
