$MeshFormat
4.1 0 8
$EndMeshFormat
$PhysicalNames
4
1 2 "inlet"
1 3 "outlet"
1 4 "noflux"
2 1 "dom"
$EndPhysicalNames
$Entities
4 4 1 0
1 0 0 0 0 
2 1 0 0 0 
3 1 1 0 0 
4 0 1 0 0 
1 -9.999999994736442e-08 -1e-07 -1e-07 1.0000001 1e-07 1e-07 1 4 2 1 -2 
2 0.9999999000000001 -9.999999994736442e-08 -1e-07 1.0000001 1.0000001 1e-07 1 3 2 2 -3 
3 -9.999999994736442e-08 0.9999999000000001 -1e-07 1.0000001 1.0000001 1e-07 1 4 2 3 -4 
4 -1e-07 -9.999999994736442e-08 -1e-07 1e-07 1.0000001 1e-07 1 2 2 4 -1 
1 -9.999999994736442e-08 -9.999999994736442e-08 -1e-07 1.0000001 1.0000001 1e-07 1 1 4 1 2 3 4 
$EndEntities
$Nodes
9 8 1 8
0 1 0 1
1
0 0 0
0 2 0 1
2
1 0 0
0 3 0 1
3
1 1 0
0 4 0 1
4
0 1 0
1 1 0 2
5
6
0.3333333333333333 0 0
0.6666666666666666 0 0
1 2 0 0
1 3 0 2
7
8
0.6666666666666667 1 0
0.3333333333333334 1 0
1 4 0 0
2 1 0 0
$EndNodes
$Elements
5 11 1 11
1 1 1 3
1 1 5 
2 5 6 
3 6 2 
1 2 1 1
4 2 3 
1 3 1 3
5 3 7 
6 7 8 
7 8 4 
1 4 1 1
8 4 1 
2 1 3 3
9 1 5 8 4 
10 5 6 7 8 
11 6 2 3 7 
$EndElements
