$MeshFormat
4.1 0 8
$EndMeshFormat
$PhysicalNames
6
1 2 "bottom"
1 3 "diffusor"
1 4 "gap"
1 5 "lid"
1 6 "sandscreen"
2 1 "dom"
$EndPhysicalNames
$Entities
6 6 1 0
1 0.03015 0 0 0 
2 0.34065 0 0 0 
3 0.37515 0 0 0 
4 0.37515 1 0 0 
5 0.34065 1 0 0 
6 0.03015 1 0 0 
1 0.03014990000000001 -1e-07 -1e-07 0.3406501 1e-07 1e-07 1 2 2 1 -2 
2 0.3406499 -1e-07 -1e-07 0.3751501 1e-07 1e-07 1 2 2 2 -3 
3 0.3751499 -9.999999994736442e-08 -1e-07 0.3751501 1.0000001 1e-07 1 3 2 3 -4 
4 0.3406499 0.9999999000000001 -1e-07 0.3751501 1.0000001 1e-07 1 4 2 4 -5 
5 0.03014990000000001 0.9999999000000001 -1e-07 0.3406501 1.0000001 1e-07 1 5 2 5 -6 
6 0.0301499 -9.999999994736442e-08 -1e-07 0.0301501 1.0000001 1e-07 1 6 2 6 -1 
1 0.03014990000000001 -9.999999994736442e-08 -1e-07 0.3751501 1.0000001 1e-07 1 1 6 1 2 3 4 5 6 
$EndEntities
$Nodes
13 121 1 121
0 1 0 1
1
0.03015 0 0
0 2 0 1
2
0.34065 0 0
0 3 0 1
3
0.37515 0 0
0 4 0 1
4
0.37515 1 0
0 5 0 1
5
0.34065 1 0
0 6 0 1
6
0.03015 1 0
1 1 0 8
7
8
9
10
11
12
13
14
0.06464999999999992 0 0
0.09914999999999986 0 0
0.1336499999999998 0 0
0.1681499999999997 0 0
0.2026499999999997 0 0
0.2371499999999998 0 0
0.2716499999999999 0 0
0.3061499999999999 0 0
1 2 0 0
1 3 0 9
15
16
17
18
19
20
21
22
23
0.37515 0.1 0
0.37515 0.2 0
0.37515 0.3 0
0.37515 0.4 0
0.37515 0.5 0
0.37515 0.6000000000000001 0
0.37515 0.7000000000000001 0
0.37515 0.8 0
0.37515 0.9 0
1 4 0 0
1 5 0 8
24
25
26
27
28
29
30
31
0.3061500000000001 1 0
0.2716500000000002 1 0
0.2371500000000002 1 0
0.2026500000000003 1 0
0.1681500000000003 1 0
0.1336500000000002 1 0
0.09915000000000013 1 0
0.0646500000000001 1 0
1 6 0 9
32
33
34
35
36
37
38
39
40
0.03015 0.9 0
0.03015 0.8 0
0.03015 0.7 0
0.03015 0.6 0
0.03015 0.5 0
0.03015 0.3999999999999999 0
0.03015 0.2999999999999999 0
0.03015 0.2 0
0.03015 0.09999999999999998 0
2 1 0 81
41
42
43
44
45
46
47
48
49
50
51
52
53
54
55
56
57
58
59
60
61
62
63
64
65
66
67
68
69
70
71
72
73
74
75
76
77
78
79
80
81
82
83
84
85
86
87
88
89
90
91
92
93
94
95
96
97
98
99
100
101
102
103
104
105
106
107
108
109
110
111
112
113
114
115
116
117
118
119
120
121
0.06464999999999993 0.09999999999999998 0
0.06465000000000001 0.2 0
0.06464999999999999 0.2999999999999999 0
0.06465000000000001 0.3999999999999999 0
0.06464999999999999 0.5 0
0.06465000000000004 0.6 0
0.06465000000000007 0.7 0
0.06465000000000004 0.8 0
0.06465000000000012 0.9 0
0.0991499999999999 0.09999999999999998 0
0.09914999999999992 0.2 0
0.09914999999999995 0.2999999999999999 0
0.09914999999999996 0.3999999999999999 0
0.09915000000000002 0.5 0
0.09915000000000004 0.6 0
0.09915000000000009 0.7 0
0.09915000000000007 0.8 0
0.0991500000000001 0.9 0
0.1336499999999999 0.1 0
0.1336499999999999 0.1999999999999999 0
0.1336499999999999 0.3 0
0.13365 0.3999999999999999 0
0.13365 0.5 0
0.13365 0.6 0
0.1336500000000001 0.7 0
0.1336500000000001 0.8 0
0.1336500000000002 0.9 0
0.1681499999999998 0.09999999999999998 0
0.1681499999999999 0.1999999999999999 0
0.1681499999999999 0.3 0
0.16815 0.4 0
0.16815 0.5 0
0.1681500000000001 0.6 0
0.1681500000000001 0.7 0
0.1681500000000002 0.8 0
0.1681500000000002 0.9 0
0.2026499999999997 0.09999999999999998 0
0.2026499999999998 0.2 0
0.2026499999999999 0.2999999999999999 0
0.2026499999999999 0.4 0
0.20265 0.5 0
0.2026500000000001 0.6000000000000001 0
0.2026500000000001 0.7 0
0.2026500000000002 0.8 0
0.2026500000000002 0.9 0
0.2371499999999998 0.09999999999999998 0
0.2371499999999999 0.2 0
0.2371499999999999 0.2999999999999999 0
0.23715 0.4 0
0.23715 0.5 0
0.23715 0.6000000000000001 0
0.2371500000000001 0.7 0
0.2371500000000001 0.8 0
0.2371500000000001 0.9 0
0.2716499999999999 0.09999999999999998 0
0.2716499999999999 0.2000000000000001 0
0.2716499999999999 0.2999999999999999 0
0.27165 0.4 0
0.27165 0.5 0
0.2716500000000001 0.6000000000000001 0
0.2716500000000001 0.7 0
0.2716500000000001 0.8 0
0.2716500000000001 0.9 0
0.3061499999999999 0.09999999999999998 0
0.3061499999999999 0.2000000000000001 0
0.30615 0.3 0
0.30615 0.4 0
0.30615 0.5 0
0.30615 0.6000000000000001 0
0.30615 0.7000000000000001 0
0.30615 0.8 0
0.30615 0.9 0
0.34065 0.09999999999999998 0
0.34065 0.2 0
0.34065 0.3 0
0.34065 0.4 0
0.34065 0.5 0
0.34065 0.6000000000000001 0
0.34065 0.7000000000000001 0
0.34065 0.8 0
0.34065 0.9 0
$EndNodes
$Elements
7 140 1 140
1 1 1 9
1 1 7 
2 7 8 
3 8 9 
4 9 10 
5 10 11 
6 11 12 
7 12 13 
8 13 14 
9 14 2 
1 2 1 1
10 2 3 
1 3 1 10
11 3 15 
12 15 16 
13 16 17 
14 17 18 
15 18 19 
16 19 20 
17 20 21 
18 21 22 
19 22 23 
20 23 4 
1 4 1 1
21 4 5 
1 5 1 9
22 5 24 
23 24 25 
24 25 26 
25 26 27 
26 27 28 
27 28 29 
28 29 30 
29 30 31 
30 31 6 
1 6 1 10
31 6 32 
32 32 33 
33 33 34 
34 34 35 
35 35 36 
36 36 37 
37 37 38 
38 38 39 
39 39 40 
40 40 1 
2 1 3 100
41 1 7 41 40 
42 40 41 42 39 
43 39 42 43 38 
44 38 43 44 37 
45 37 44 45 36 
46 36 45 46 35 
47 35 46 47 34 
48 34 47 48 33 
49 33 48 49 32 
50 32 49 31 6 
51 7 8 50 41 
52 41 50 51 42 
53 42 51 52 43 
54 43 52 53 44 
55 44 53 54 45 
56 45 54 55 46 
57 46 55 56 47 
58 47 56 57 48 
59 48 57 58 49 
60 49 58 30 31 
61 8 9 59 50 
62 50 59 60 51 
63 51 60 61 52 
64 52 61 62 53 
65 53 62 63 54 
66 54 63 64 55 
67 55 64 65 56 
68 56 65 66 57 
69 57 66 67 58 
70 58 67 29 30 
71 9 10 68 59 
72 59 68 69 60 
73 60 69 70 61 
74 61 70 71 62 
75 62 71 72 63 
76 63 72 73 64 
77 64 73 74 65 
78 65 74 75 66 
79 66 75 76 67 
80 67 76 28 29 
81 10 11 77 68 
82 68 77 78 69 
83 69 78 79 70 
84 70 79 80 71 
85 71 80 81 72 
86 72 81 82 73 
87 73 82 83 74 
88 74 83 84 75 
89 75 84 85 76 
90 76 85 27 28 
91 11 12 86 77 
92 77 86 87 78 
93 78 87 88 79 
94 79 88 89 80 
95 80 89 90 81 
96 81 90 91 82 
97 82 91 92 83 
98 83 92 93 84 
99 84 93 94 85 
100 85 94 26 27 
101 12 13 95 86 
102 86 95 96 87 
103 87 96 97 88 
104 88 97 98 89 
105 89 98 99 90 
106 90 99 100 91 
107 91 100 101 92 
108 92 101 102 93 
109 93 102 103 94 
110 94 103 25 26 
111 13 14 104 95 
112 95 104 105 96 
113 96 105 106 97 
114 97 106 107 98 
115 98 107 108 99 
116 99 108 109 100 
117 100 109 110 101 
118 101 110 111 102 
119 102 111 112 103 
120 103 112 24 25 
121 14 2 113 104 
122 104 113 114 105 
123 105 114 115 106 
124 106 115 116 107 
125 107 116 117 108 
126 108 117 118 109 
127 109 118 119 110 
128 110 119 120 111 
129 111 120 121 112 
130 112 121 5 24 
131 2 3 15 113 
132 113 15 16 114 
133 114 16 17 115 
134 115 17 18 116 
135 116 18 19 117 
136 117 19 20 118 
137 118 20 21 119 
138 119 21 22 120 
139 120 22 23 121 
140 121 23 4 5 
$EndElements
