$MeshFormat
4.1 0 8
$EndMeshFormat
$PhysicalNames
5
1 2 "bottom"
1 3 "right"
1 4 "top"
1 5 "left"
2 1 "dom"
$EndPhysicalNames
$Entities
4 4 1 0
1 0 0 0 0 
2 1 0 0 0 
3 1 1 0 0 
4 0 1 0 0 
1 -9.999999994736442e-08 -1e-07 -1e-07 1.0000001 1e-07 1e-07 1 2 2 1 -2 
2 0.9999999000000001 -9.999999994736442e-08 -1e-07 1.0000001 1.0000001 1e-07 1 3 2 2 -3 
3 -9.999999994736442e-08 0.9999999000000001 -1e-07 1.0000001 1.0000001 1e-07 1 4 2 3 -4 
4 -1e-07 -9.999999994736442e-08 -1e-07 1e-07 1.0000001 1e-07 1 5 2 4 -1 
1 -9.999999994736442e-08 -9.999999994736442e-08 -1e-07 1.0000001 1.0000001 1e-07 1 1 4 1 2 3 4 
$EndEntities
$Nodes
9 202 1 202
0 1 0 1
1
0 0 0
0 2 0 1
2
1 0 0
0 3 0 1
3
1 1 0
0 4 0 1
4
0 1 0
1 1 0 0
1 2 0 99
5
6
7
8
9
10
11
12
13
14
15
16
17
18
19
20
21
22
23
24
25
26
27
28
29
30
31
32
33
34
35
36
37
38
39
40
41
42
43
44
45
46
47
48
49
50
51
52
53
54
55
56
57
58
59
60
61
62
63
64
65
66
67
68
69
70
71
72
73
74
75
76
77
78
79
80
81
82
83
84
85
86
87
88
89
90
91
92
93
94
95
96
97
98
99
100
101
102
103
1 0.01 0
1 0.02 0
1 0.03 0
1 0.04 0
1 0.05 0
1 0.06 0
1 0.07000000000000001 0
1 0.08 0
1 0.09 0
1 0.1 0
1 0.11 0
1 0.12 0
1 0.13 0
1 0.14 0
1 0.15 0
1 0.16 0
1 0.17 0
1 0.18 0
1 0.19 0
1 0.2 0
1 0.21 0
1 0.22 0
1 0.23 0
1 0.24 0
1 0.25 0
1 0.26 0
1 0.27 0
1 0.28 0
1 0.29 0
1 0.3 0
1 0.31 0
1 0.32 0
1 0.33 0
1 0.34 0
1 0.35 0
1 0.36 0
1 0.37 0
1 0.38 0
1 0.39 0
1 0.4 0
1 0.41 0
1 0.42 0
1 0.43 0
1 0.44 0
1 0.45 0
1 0.46 0
1 0.47 0
1 0.48 0
1 0.49 0
1 0.5 0
1 0.51 0
1 0.52 0
1 0.53 0
1 0.54 0
1 0.55 0
1 0.5600000000000001 0
1 0.5700000000000001 0
1 0.58 0
1 0.59 0
1 0.6 0
1 0.61 0
1 0.62 0
1 0.63 0
1 0.64 0
1 0.65 0
1 0.66 0
1 0.67 0
1 0.68 0
1 0.6900000000000001 0
1 0.7000000000000001 0
1 0.71 0
1 0.72 0
1 0.73 0
1 0.74 0
1 0.75 0
1 0.76 0
1 0.77 0
1 0.78 0
1 0.79 0
1 0.8 0
1 0.8100000000000001 0
1 0.8200000000000001 0
1 0.8300000000000001 0
1 0.84 0
1 0.85 0
1 0.86 0
1 0.87 0
1 0.88 0
1 0.89 0
1 0.9 0
1 0.91 0
1 0.92 0
1 0.93 0
1 0.9400000000000001 0
1 0.9500000000000001 0
1 0.96 0
1 0.97 0
1 0.98 0
1 0.99 0
1 3 0 0
1 4 0 99
104
105
106
107
108
109
110
111
112
113
114
115
116
117
118
119
120
121
122
123
124
125
126
127
128
129
130
131
132
133
134
135
136
137
138
139
140
141
142
143
144
145
146
147
148
149
150
151
152
153
154
155
156
157
158
159
160
161
162
163
164
165
166
167
168
169
170
171
172
173
174
175
176
177
178
179
180
181
182
183
184
185
186
187
188
189
190
191
192
193
194
195
196
197
198
199
200
201
202
0 0.99 0
0 0.98 0
0 0.97 0
0 0.96 0
0 0.95 0
0 0.9399999999999999 0
0 0.9299999999999999 0
0 0.92 0
0 0.91 0
0 0.9 0
0 0.89 0
0 0.88 0
0 0.87 0
0 0.86 0
0 0.85 0
0 0.84 0
0 0.83 0
0 0.8200000000000001 0
0 0.8100000000000001 0
0 0.8 0
0 0.79 0
0 0.78 0
0 0.77 0
0 0.76 0
0 0.75 0
0 0.74 0
0 0.73 0
0 0.72 0
0 0.71 0
0 0.7 0
0 0.6899999999999999 0
0 0.6799999999999999 0
0 0.6699999999999999 0
0 0.6599999999999999 0
0 0.6499999999999999 0
0 0.64 0
0 0.63 0
0 0.62 0
0 0.61 0
0 0.6 0
0 0.59 0
0 0.5800000000000001 0
0 0.5700000000000001 0
0 0.5600000000000001 0
0 0.55 0
0 0.54 0
0 0.53 0
0 0.52 0
0 0.51 0
0 0.5 0
0 0.49 0
0 0.48 0
0 0.47 0
0 0.46 0
0 0.45 0
0 0.4399999999999999 0
0 0.4299999999999999 0
0 0.42 0
0 0.41 0
0 0.4 0
0 0.39 0
0 0.38 0
0 0.37 0
0 0.36 0
0 0.35 0
0 0.34 0
0 0.33 0
0 0.32 0
0 0.3099999999999999 0
0 0.2999999999999999 0
0 0.29 0
0 0.28 0
0 0.27 0
0 0.26 0
0 0.25 0
0 0.24 0
0 0.23 0
0 0.22 0
0 0.21 0
0 0.2 0
0 0.1899999999999999 0
0 0.1799999999999999 0
0 0.1699999999999999 0
0 0.16 0
0 0.15 0
0 0.14 0
0 0.13 0
0 0.12 0
0 0.11 0
0 0.09999999999999998 0
0 0.08999999999999997 0
0 0.07999999999999996 0
0 0.06999999999999995 0
0 0.05999999999999994 0
0 0.04999999999999993 0
0 0.04000000000000004 0
0 0.03000000000000003 0
0 0.02000000000000002 0
0 0.01000000000000001 0
2 1 0 0
$EndNodes
$Elements
5 302 1 302
1 1 1 1
1 1 2 
1 2 1 100
2 2 5 
3 5 6 
4 6 7 
5 7 8 
6 8 9 
7 9 10 
8 10 11 
9 11 12 
10 12 13 
11 13 14 
12 14 15 
13 15 16 
14 16 17 
15 17 18 
16 18 19 
17 19 20 
18 20 21 
19 21 22 
20 22 23 
21 23 24 
22 24 25 
23 25 26 
24 26 27 
25 27 28 
26 28 29 
27 29 30 
28 30 31 
29 31 32 
30 32 33 
31 33 34 
32 34 35 
33 35 36 
34 36 37 
35 37 38 
36 38 39 
37 39 40 
38 40 41 
39 41 42 
40 42 43 
41 43 44 
42 44 45 
43 45 46 
44 46 47 
45 47 48 
46 48 49 
47 49 50 
48 50 51 
49 51 52 
50 52 53 
51 53 54 
52 54 55 
53 55 56 
54 56 57 
55 57 58 
56 58 59 
57 59 60 
58 60 61 
59 61 62 
60 62 63 
61 63 64 
62 64 65 
63 65 66 
64 66 67 
65 67 68 
66 68 69 
67 69 70 
68 70 71 
69 71 72 
70 72 73 
71 73 74 
72 74 75 
73 75 76 
74 76 77 
75 77 78 
76 78 79 
77 79 80 
78 80 81 
79 81 82 
80 82 83 
81 83 84 
82 84 85 
83 85 86 
84 86 87 
85 87 88 
86 88 89 
87 89 90 
88 90 91 
89 91 92 
90 92 93 
91 93 94 
92 94 95 
93 95 96 
94 96 97 
95 97 98 
96 98 99 
97 99 100 
98 100 101 
99 101 102 
100 102 103 
101 103 3 
1 3 1 1
102 3 4 
1 4 1 100
103 4 104 
104 104 105 
105 105 106 
106 106 107 
107 107 108 
108 108 109 
109 109 110 
110 110 111 
111 111 112 
112 112 113 
113 113 114 
114 114 115 
115 115 116 
116 116 117 
117 117 118 
118 118 119 
119 119 120 
120 120 121 
121 121 122 
122 122 123 
123 123 124 
124 124 125 
125 125 126 
126 126 127 
127 127 128 
128 128 129 
129 129 130 
130 130 131 
131 131 132 
132 132 133 
133 133 134 
134 134 135 
135 135 136 
136 136 137 
137 137 138 
138 138 139 
139 139 140 
140 140 141 
141 141 142 
142 142 143 
143 143 144 
144 144 145 
145 145 146 
146 146 147 
147 147 148 
148 148 149 
149 149 150 
150 150 151 
151 151 152 
152 152 153 
153 153 154 
154 154 155 
155 155 156 
156 156 157 
157 157 158 
158 158 159 
159 159 160 
160 160 161 
161 161 162 
162 162 163 
163 163 164 
164 164 165 
165 165 166 
166 166 167 
167 167 168 
168 168 169 
169 169 170 
170 170 171 
171 171 172 
172 172 173 
173 173 174 
174 174 175 
175 175 176 
176 176 177 
177 177 178 
178 178 179 
179 179 180 
180 180 181 
181 181 182 
182 182 183 
183 183 184 
184 184 185 
185 185 186 
186 186 187 
187 187 188 
188 188 189 
189 189 190 
190 190 191 
191 191 192 
192 192 193 
193 193 194 
194 194 195 
195 195 196 
196 196 197 
197 197 198 
198 198 199 
199 199 200 
200 200 201 
201 201 202 
202 202 1 
2 1 3 100
203 1 2 5 202 
204 202 5 6 201 
205 201 6 7 200 
206 200 7 8 199 
207 199 8 9 198 
208 198 9 10 197 
209 197 10 11 196 
210 196 11 12 195 
211 195 12 13 194 
212 194 13 14 193 
213 193 14 15 192 
214 192 15 16 191 
215 191 16 17 190 
216 190 17 18 189 
217 189 18 19 188 
218 188 19 20 187 
219 187 20 21 186 
220 186 21 22 185 
221 185 22 23 184 
222 184 23 24 183 
223 183 24 25 182 
224 182 25 26 181 
225 181 26 27 180 
226 180 27 28 179 
227 179 28 29 178 
228 178 29 30 177 
229 177 30 31 176 
230 176 31 32 175 
231 175 32 33 174 
232 174 33 34 173 
233 173 34 35 172 
234 172 35 36 171 
235 171 36 37 170 
236 170 37 38 169 
237 169 38 39 168 
238 168 39 40 167 
239 167 40 41 166 
240 166 41 42 165 
241 165 42 43 164 
242 164 43 44 163 
243 163 44 45 162 
244 162 45 46 161 
245 161 46 47 160 
246 160 47 48 159 
247 159 48 49 158 
248 158 49 50 157 
249 157 50 51 156 
250 156 51 52 155 
251 155 52 53 154 
252 154 53 54 153 
253 153 54 55 152 
254 152 55 56 151 
255 151 56 57 150 
256 150 57 58 149 
257 149 58 59 148 
258 148 59 60 147 
259 147 60 61 146 
260 146 61 62 145 
261 145 62 63 144 
262 144 63 64 143 
263 143 64 65 142 
264 142 65 66 141 
265 141 66 67 140 
266 140 67 68 139 
267 139 68 69 138 
268 138 69 70 137 
269 137 70 71 136 
270 136 71 72 135 
271 135 72 73 134 
272 134 73 74 133 
273 133 74 75 132 
274 132 75 76 131 
275 131 76 77 130 
276 130 77 78 129 
277 129 78 79 128 
278 128 79 80 127 
279 127 80 81 126 
280 126 81 82 125 
281 125 82 83 124 
282 124 83 84 123 
283 123 84 85 122 
284 122 85 86 121 
285 121 86 87 120 
286 120 87 88 119 
287 119 88 89 118 
288 118 89 90 117 
289 117 90 91 116 
290 116 91 92 115 
291 115 92 93 114 
292 114 93 94 113 
293 113 94 95 112 
294 112 95 96 111 
295 111 96 97 110 
296 110 97 98 109 
297 109 98 99 108 
298 108 99 100 107 
299 107 100 101 106 
300 106 101 102 105 
301 105 102 103 104 
302 104 103 3 4 
$EndElements
